<?xml version="1.0" encoding="UTF-8" standalone="no"?>
<svg
   xmlns:dc="http://purl.org/dc/elements/1.1/"
   xmlns:cc="http://creativecommons.org/ns#"
   xmlns:rdf="http://www.w3.org/1999/02/22-rdf-syntax-ns#"
   xmlns:svg="http://www.w3.org/2000/svg"
   xmlns="http://www.w3.org/2000/svg"
   xmlns:sodipodi="http://sodipodi.sourceforge.net/DTD/sodipodi-0.dtd"
   xmlns:inkscape="http://www.inkscape.org/namespaces/inkscape"
   inkscape:version="1.0 (unknown)"
   sodipodi:docname="drawing4.svg"
   id="svg874"
   version="1.1"
   viewBox="0 0 210 297"
   height="297mm"
   width="210mm">
  <defs
     id="defs868" />
  <sodipodi:namedview
     inkscape:window-maximized="1"
     inkscape:window-y="27"
     inkscape:window-x="0"
     inkscape:window-height="704"
     inkscape:window-width="1366"
     inkscape:snap-global="true"
     showgrid="false"
     inkscape:document-rotation="0"
     inkscape:current-layer="layer1"
     inkscape:document-units="mm"
     inkscape:cy="655.92434"
     inkscape:cx="391.37481"
     inkscape:zoom="0.35"
     inkscape:pageshadow="2"
     inkscape:pageopacity="0.0"
     borderopacity="1.0"
     bordercolor="#666666"
     pagecolor="#ffffff"
     id="base" />
  <metadata
     id="metadata871">
    <rdf:RDF>
      <cc:Work
         rdf:about="">
        <dc:format>image/svg+xml</dc:format>
        <dc:type
           rdf:resource="http://purl.org/dc/dcmitype/StillImage" />
        <dc:title></dc:title>
      </cc:Work>
    </rdf:RDF>
  </metadata>
  <g
     id="layer1"
     inkscape:groupmode="layer"
     inkscape:label="Layer 1">
    <path
       sodipodi:nodetypes="cccccccccccccccc"
       id="path1460"
       d="M 0.73814419,4.2570188 18.584533,4.4915191 53.372098,171.1591 41.701744,115.36351 81.713545,114.94138 v 52.95285 l 55.557175,0.0888 0.14967,-53.00983 -55.706845,-0.0317 0.413256,-52.952834 56.551239,0.07621 -0.56292,52.908074 0.28146,53.01054 28.34145,0.0762 28.34145,-106.070982 h -56.6829"
       style="fill:none;stroke:#14005b;stroke-width:8.73621;stroke-linecap:butt;stroke-linejoin:miter;stroke-miterlimit:4;stroke-dasharray:none;stroke-opacity:1" />
    <path
       d="M 68.577957,184.89548 A 12.006138,10.330049 0 0 1 56.704669,195.22489 12.006138,10.330049 0 0 1 44.568621,185.12407 12.006138,10.330049 0 0 1 56.173335,174.57112 12.006138,10.330049 0 0 1 68.566199,184.4384"
       sodipodi:arc-type="arc"
       sodipodi:open="true"
       sodipodi:end="6.2389238"
       sodipodi:start="0"
       sodipodi:ry="10.330049"
       sodipodi:rx="12.006138"
       sodipodi:cy="184.89548"
       sodipodi:cx="56.571819"
       sodipodi:type="arc"
       id="path1466"
       style="fill:#000000;stroke:#14005b;stroke-width:9.13101;stroke-linecap:round;stroke-miterlimit:4;stroke-dasharray:none;stroke-opacity:1" />
    <path
       style="fill:#000000;stroke:#14005b;stroke-width:9.13101;stroke-linecap:round;stroke-miterlimit:4;stroke-dasharray:none;stroke-opacity:1"
       id="path1466-7"
       sodipodi:type="arc"
       sodipodi:cx="166.57182"
       sodipodi:cy="184.89548"
       sodipodi:rx="12.006138"
       sodipodi:ry="10.330049"
       sodipodi:start="0"
       sodipodi:end="6.2389238"
       sodipodi:open="true"
       sodipodi:arc-type="arc"
       d="m 178.57796,184.89548 a 12.006138,10.330049 0 0 1 -11.87329,10.32941 12.006138,10.330049 0 0 1 -12.13604,-10.10082 12.006138,10.330049 0 0 1 11.60471,-10.55295 12.006138,10.330049 0 0 1 12.39286,9.86728" />
  </g>
</svg>
