<?xml version="1.0" encoding="UTF-8" standalone="no"?>
<svg
   xmlns:dc="http://purl.org/dc/elements/1.1/"
   xmlns:cc="http://creativecommons.org/ns#"
   xmlns:rdf="http://www.w3.org/1999/02/22-rdf-syntax-ns#"
   xmlns:svg="http://www.w3.org/2000/svg"
   xmlns="http://www.w3.org/2000/svg"
   xmlns:sodipodi="http://sodipodi.sourceforge.net/DTD/sodipodi-0.dtd"
   xmlns:inkscape="http://www.inkscape.org/namespaces/inkscape"
   sodipodi:docname="logo-white.svg"
   inkscape:version="1.0.1 (3bc2e813f5, 2020-09-07)"
   id="svg8"
   version="1.1"
   viewBox="0 0 108 108"
   height="108mm"
   width="108mm"
   inkscape:export-filename="/home/venky/mandi/src/main/resources/web_manifest/drawing3.png"
   inkscape:export-xdpi="96"
   inkscape:export-ydpi="96">
  <defs
     id="defs2" />
  <sodipodi:namedview
     inkscape:showpageshadow="false"
     showborder="false"
     fit-margin-bottom="0"
     fit-margin-right="0"
     fit-margin-left="0"
     fit-margin-top="0"
     inkscape:window-maximized="1"
     inkscape:window-y="0"
     inkscape:window-x="0"
     inkscape:window-height="704"
     inkscape:window-width="1366"
     inkscape:snap-global="false"
     showgrid="false"
     inkscape:document-rotation="0"
     inkscape:current-layer="g1498"
     inkscape:document-units="mm"
     inkscape:cy="253.45801"
     inkscape:cx="170.48596"
     inkscape:zoom="1"
     inkscape:pageshadow="2"
     inkscape:pageopacity="0.0"
     borderopacity="1.0"
     bordercolor="#666666"
     pagecolor="#ffffff"
     id="base" />
  <metadata
     id="metadata5">
    <rdf:RDF>
      <cc:Work
         rdf:about="">
        <dc:format>image/svg+xml</dc:format>
        <dc:type
           rdf:resource="http://purl.org/dc/dcmitype/StillImage" />
        <dc:title></dc:title>
      </cc:Work>
    </rdf:RDF>
  </metadata>
  <g
     transform="translate(0.89946644,-13.195846)"
     id="layer1"
     inkscape:groupmode="layer"
     inkscape:label="Layer 1">
    <g
       id="g1498"
       transform="matrix(0.36251181,0,0,0.36251181,-0.95017226,8.0354231)">
      <g
         id="g909">
        <path
           id="rect873"
           style="fill:none;fill-opacity:1;stroke:none;stroke-width:2.07868;stroke-linecap:round"
           d="M 0.13987356,14.235186 H 298.0612 V 312.15651 H 0.13987356 Z" />
        <g
           style="stroke:none;fill:#ffffff;fill-opacity:1"
           id="g1053"
           transform="matrix(1.0834262,0,0,1.2896818,-13.899244,-47.526377)">
          <path
             style="fill:#ffffff;fill-opacity:1;stroke:none;stroke-width:0.871881;stroke-linecap:round;stroke-miterlimit:4;stroke-dasharray:none"
             d="m 156.2902,140.3088 90.54243,0.27049 -18.15329,80.87844 -45.52901,-0.28406 h -27.11809 l 0.21968,-8.52757 5.09871,-0.31461 0.20012,-63.90782 -5.0229,0.10286 z m 69.30098,46.95384 -55.75434,-0.12938 -0.29101,25.90879 50.56283,-0.30409 z m 8.71,-38.93778 -64.75535,0.33876 v 28.9844 l 57.69467,0.34311 z"
             id="path1424"
             sodipodi:nodetypes="cccccccccccccccccccc" />
          <g
             aria-label="O"
             transform="scale(1.273376,0.78531398)"
             id="text883-67"
             style="font-style:normal;font-variant:normal;font-weight:normal;font-stretch:normal;font-size:69.2548px;line-height:1.25;font-family:sans-serif;-inkscape-font-specification:sans-serif;fill:#ffffff;fill-opacity:1;stroke:none;stroke-width:0.865551;stroke-miterlimit:4;stroke-dasharray:none;stroke-opacity:1">
            <path
               d="m 63.994811,288.92227 q -7.43948,0 -11.835537,5.54579 -4.362241,5.5458 -4.362241,15.11567 0,9.53607 4.362241,15.08186 4.396057,5.54579 11.835537,5.54579 7.43948,0 11.767905,-5.54579 4.362241,-5.54579 4.362241,-15.08186 0,-9.56987 -4.362241,-15.11567 -4.328425,-5.54579 -11.767905,-5.54579 z m 0,-5.5458 q 10.618167,0 16.975541,7.13514 6.357375,7.10132 6.357375,19.07212 0,11.93699 -6.357375,19.07213 -6.357374,7.10132 -16.975541,7.10132 -10.651983,0 -17.043173,-7.10132 -6.357374,-7.10133 -6.357374,-19.07213 0,-11.9708 6.357374,-19.07212 6.39119,-7.13514 17.043173,-7.13514 z"
               style="font-style:normal;font-variant:normal;font-weight:normal;font-stretch:normal;font-family:sans-serif;-inkscape-font-specification:sans-serif;fill:#ffffff;fill-opacity:1;stroke:none;stroke-width:0.865551;stroke-miterlimit:4;stroke-dasharray:none;stroke-opacity:1"
               id="path854" />
          </g>
          <g
             aria-label="e"
             transform="scale(1.2186066,0.82060936)"
             id="text883-6-3"
             style="font-style:normal;font-variant:normal;font-weight:normal;font-stretch:normal;font-size:89.3763px;line-height:1.25;font-family:sans-serif;-inkscape-font-specification:sans-serif;fill:#ffffff;fill-opacity:1;stroke:none;stroke-width:0.871881;stroke-miterlimit:4;stroke-dasharray:none;stroke-opacity:1"
             inkscape:transform-center-x="-9.6023228"
             inkscape:transform-center-y="2.6706614">
            <path
               d="m 203.45581,294.20601 v 3.92767 h -36.92009 q 0.52368,8.29174 4.97504,12.65582 4.495,4.32044 12.48126,4.32044 4.62593,0 8.94636,-1.13466 4.36408,-1.13466 8.64087,-3.40398 v 7.59349 q -4.32043,1.83291 -8.85907,2.79301 -4.53864,0.9601 -9.2082,0.9601 -11.69573,0 -18.54733,-6.80796 -6.80796,-6.80796 -6.80796,-18.41641 0,-12.00121 6.45883,-19.02738 6.50248,-7.0698 17.49995,-7.0698 9.86281,0 15.57976,6.37155 5.76058,6.32791 5.76058,17.23811 z m -8.0299,-2.3566 q -0.0873,-6.58976 -3.70947,-10.51743 -3.57854,-3.92767 -9.51369,-3.92767 -6.72068,0 -10.77927,3.79675 -4.01495,3.79674 -4.62592,10.69199 z"
               style="font-style:normal;font-variant:normal;font-weight:normal;font-stretch:normal;font-family:sans-serif;-inkscape-font-specification:sans-serif;fill:#ffffff;fill-opacity:1;stroke:none;stroke-width:0.871881;stroke-miterlimit:4;stroke-dasharray:none;stroke-opacity:1"
               id="path857" />
          </g>
          <g
             aria-label="nlin"
             transform="scale(1.0307356,0.97018091)"
             id="text883-5-6"
             style="font-style:normal;font-variant:normal;font-weight:normal;font-stretch:normal;font-size:46.137px;line-height:1.25;font-family:sans-serif;-inkscape-font-specification:sans-serif;fill:#ffffff;fill-opacity:1;stroke:none;stroke-width:0.871881;stroke-miterlimit:4;stroke-dasharray:none;stroke-opacity:1">
            <path
               d="m 130.85629,250.30778 v 15.22881 h -4.14512 v -15.09365 q 0,-3.58192 -1.39673,-5.36162 -1.39672,-1.7797 -4.19018,-1.7797 -3.35664,0 -5.29404,2.14014 -1.93739,2.14015 -1.93739,5.83471 v 14.26012 h -4.16765 v -25.23117 h 4.16765 v 3.91984 q 1.48684,-2.27531 3.49181,-3.4017 2.02751,-1.12639 4.66326,-1.12639 4.34788,0 6.57813,2.70334 2.23026,2.68081 2.23026,7.90727 z"
               style="font-style:normal;font-variant:normal;font-weight:normal;font-stretch:normal;font-size:46.137px;font-family:sans-serif;-inkscape-font-specification:sans-serif;fill:#ffffff;fill-opacity:1;stroke:none;stroke-width:0.871881;stroke-miterlimit:4;stroke-dasharray:none;stroke-opacity:1"
               id="path860" />
            <path
               d="m 139.16906,230.48328 h 4.14512 v 35.05331 h -4.14512 z"
               style="font-style:normal;font-variant:normal;font-weight:normal;font-stretch:normal;font-size:46.137px;font-family:sans-serif;-inkscape-font-specification:sans-serif;fill:#ffffff;fill-opacity:1;stroke:none;stroke-width:0.871881;stroke-miterlimit:4;stroke-dasharray:none;stroke-opacity:1"
               id="path862" />
            <path
               d="m 151.96487,240.30542 h 4.14512 v 25.23117 h -4.14512 z m 0,-9.82214 h 4.14512 v 5.24899 h -4.14512 z"
               style="font-style:normal;font-variant:normal;font-weight:normal;font-stretch:normal;font-size:46.137px;font-family:sans-serif;-inkscape-font-specification:sans-serif;fill:#ffffff;fill-opacity:1;stroke:none;stroke-width:0.871881;stroke-miterlimit:4;stroke-dasharray:none;stroke-opacity:1"
               id="path864" />
            <path
               d="m 185.73409,250.30778 v 15.22881 h -4.14512 v -15.09365 q 0,-3.58192 -1.39673,-5.36162 -1.39672,-1.7797 -4.19018,-1.7797 -3.35664,0 -5.29404,2.14014 -1.93739,2.14015 -1.93739,5.83471 v 14.26012 h -4.16765 v -25.23117 h 4.16765 v 3.91984 q 1.48684,-2.27531 3.49181,-3.4017 2.02751,-1.12639 4.66326,-1.12639 4.34788,0 6.57813,2.70334 2.23026,2.68081 2.23026,7.90727 z"
               style="font-style:normal;font-variant:normal;font-weight:normal;font-stretch:normal;font-size:46.137px;font-family:sans-serif;-inkscape-font-specification:sans-serif;fill:#ffffff;fill-opacity:1;stroke:none;stroke-width:0.871881;stroke-miterlimit:4;stroke-dasharray:none;stroke-opacity:1"
               id="path866" />
          </g>
          <path
             sodipodi:nodetypes="cccccccccccccccccccccccccccccccccccc"
             id="path1424-3"
             d="m 139.80331,221.4033 h 7.97446 l 4.31899,-0.18117 v -8.60118 l -4.34495,0.11828 -0.20588,-64.20363 4.64794,-0.10991 0.0685,-7.96543 -4.74256,-0.069 -49.89644,-2.6e-4 1.958923,8.03071 40.189667,0.36482 -0.21611,29.04977 -63.859567,0.34312 -13.292326,-104.844092 11.015623,0.0353 v -9.899457 l -12.843472,-0.174834 -10.149104,0.02879 -19.10636,-0.286745 -0.414186,9.879797 21.424206,0.417366 20.449697,140.013765 -5.200171,0.26118 0.08681,7.94226 6.590494,0.13457 10.172441,-0.0549 8.758623,-0.40642 -0.301404,-8.4741 -10.047435,-0.26207 -5.494077,-25.03896 61.919258,-0.12938 0.56761,25.48017 -28.331,0.10479 1.75232,8.62104 z"
             style="fill:#ffffff;fill-opacity:1;stroke:none;stroke-width:0.871881;stroke-linecap:round;stroke-miterlimit:4;stroke-dasharray:none" />
        </g>
      </g>
    </g>
  </g>
</svg>
